<svg width="139" height="26" viewBox="0 0 139 26" fill="none" xmlns="http://www.w3.org/2000/svg">
<path d="M14.8449 6.58283L14.8284 6.57315L14.7903 6.56152C14.8056 6.57447 14.8248 6.58196 14.8449 6.58283Z" fill="#0D0C22"/>
<path d="M14.8507 6.57949C14.8487 6.57924 14.845 6.57812 14.845 6.57812V6.58194C14.8471 6.58166 14.849 6.58082 14.8507 6.57949Z" fill="#0D0C22"/>
<path d="M14.845 6.58259H14.8475V6.58105L14.845 6.58259Z" fill="#0D0C22"/>
<path d="M15.0703 8.29434L15.098 8.27851L15.1084 8.2727L15.1177 8.2627C15.1001 8.27029 15.0841 8.28101 15.0703 8.29434Z" fill="#0D0C22"/>
<path d="M14.8929 6.61982L14.8658 6.59399L14.8474 6.58398C14.8573 6.60144 14.8736 6.61431 14.8929 6.61982Z" fill="#0D0C22"/>
<path d="M8.06913 23.2578C8.04746 23.2672 8.02848 23.2818 8.01392 23.3004L8.03104 23.2895C8.04266 23.2788 8.05913 23.2662 8.06913 23.2578Z" fill="#0D0C22"/>
<path d="M12.0317 22.4787C12.0317 22.4542 12.0198 22.4587 12.0227 22.5459C12.0227 22.5388 12.0256 22.5316 12.0269 22.5249C12.0285 22.5094 12.0298 22.4942 12.0317 22.4787Z" fill="#0D0C22"/>
<path d="M11.6205 23.2578C11.5988 23.2672 11.5798 23.2818 11.5652 23.3004L11.5824 23.2895C11.594 23.2788 11.6104 23.2662 11.6205 23.2578Z" fill="#0D0C22"/>
<path d="M5.27858 23.4431C5.26213 23.4288 5.242 23.4194 5.22046 23.416C5.2379 23.4244 5.25533 23.4328 5.26696 23.4393L5.27858 23.4431Z" fill="#0D0C22"/>
<path d="M4.65062 22.8419C4.64804 22.8164 4.64024 22.7918 4.62769 22.7695C4.63658 22.7927 4.64402 22.8164 4.64997 22.8406L4.65062 22.8419Z" fill="#0D0C22"/>
<path d="M8.86862 12.0868C8.00655 12.4558 7.02825 12.8743 5.76032 12.8743C5.22991 12.8732 4.70208 12.8004 4.19116 12.6579L5.06808 21.6612C5.09912 22.0376 5.27056 22.3884 5.54833 22.6442C5.82611 22.9 6.18991 23.0419 6.56751 23.0419C6.56751 23.0419 7.81089 23.1064 8.22578 23.1064C8.67232 23.1064 10.0113 23.0419 10.0113 23.0419C10.3888 23.0418 10.7525 22.8998 11.0302 22.6441C11.3079 22.3883 11.4793 22.0375 11.5104 21.6612L12.4496 11.7122C12.0299 11.5689 11.6063 11.4736 11.1287 11.4736C10.3028 11.4733 9.63738 11.7578 8.86862 12.0868Z" fill="white"/>
<path d="M1.47656 8.24609L1.49141 8.25998L1.5011 8.26579C1.49364 8.25838 1.48542 8.25177 1.47656 8.24609Z" fill="#0D0C22"/>
<path d="M16.5048 7.41468L16.3727 6.74859C16.2542 6.15095 15.9853 5.58625 15.3718 5.37025C15.1752 5.30115 14.9521 5.27145 14.8013 5.12841C14.6505 4.98538 14.606 4.76324 14.5711 4.55725C14.5065 4.17917 14.4458 3.80076 14.3796 3.42332C14.3225 3.09883 14.2773 2.73431 14.1284 2.43662C13.9347 2.0369 13.5327 1.80314 13.133 1.64849C12.9282 1.57203 12.7192 1.50735 12.507 1.45476C11.5083 1.1913 10.4583 1.09444 9.43095 1.03923C8.1978 0.971181 6.96136 0.991682 5.73115 1.10057C4.81548 1.18387 3.85106 1.28461 2.98092 1.60135C2.66289 1.71726 2.33517 1.85642 2.09334 2.10212C1.79662 2.40401 1.69976 2.87089 1.91641 3.24736C2.07042 3.51469 2.3313 3.70357 2.608 3.82853C2.96842 3.98953 3.34482 4.11204 3.73095 4.19402C4.80612 4.43165 5.91971 4.52496 7.01812 4.56468C8.23556 4.61381 9.45495 4.57399 10.6666 4.44554C10.9662 4.4126 11.2653 4.37311 11.5639 4.32704C11.9155 4.27312 12.1411 3.81335 12.0375 3.49306C11.9135 3.11013 11.5803 2.96161 11.2035 3.01941C11.148 3.02812 11.0928 3.0362 11.0372 3.04427L10.9972 3.05008C10.8696 3.06622 10.7419 3.08129 10.6143 3.09528C10.3506 3.1237 10.0863 3.14694 9.82131 3.16502C9.22787 3.20635 8.63281 3.2254 8.03808 3.22637C7.45368 3.22637 6.86896 3.2099 6.28585 3.17148C6.0198 3.15404 5.7544 3.13187 5.48964 3.10497C5.36921 3.09238 5.2491 3.07914 5.12899 3.06429L5.01469 3.04976L4.98983 3.04621L4.87134 3.02909C4.62919 2.99261 4.38703 2.95064 4.14746 2.89994C4.12328 2.89458 4.10166 2.88113 4.08616 2.86182C4.07066 2.8425 4.06222 2.81848 4.06222 2.79372C4.06222 2.76896 4.07066 2.74493 4.08616 2.72562C4.10166 2.70631 4.12328 2.69286 4.14746 2.68749H4.15198C4.35959 2.64326 4.56881 2.60548 4.77867 2.57255C4.84863 2.56157 4.9188 2.55081 4.98919 2.54026H4.99112C5.12253 2.53155 5.25459 2.50798 5.38535 2.49248C6.52305 2.37414 7.66751 2.33379 8.81071 2.37172C9.36573 2.38787 9.92043 2.42048 10.4729 2.47666C10.5917 2.48893 10.7099 2.50184 10.828 2.51637C10.8732 2.52186 10.9188 2.52832 10.9643 2.53381L11.056 2.54704C11.3233 2.58686 11.5892 2.63519 11.8538 2.69201C12.2458 2.77725 12.7491 2.80502 12.9235 3.23444C12.979 3.37069 13.0042 3.52212 13.0349 3.66515L13.0739 3.84758C13.0749 3.85085 13.0757 3.85419 13.0762 3.85758C13.1685 4.28808 13.261 4.71858 13.3535 5.14908C13.3603 5.18088 13.3605 5.21374 13.354 5.2456C13.3475 5.27747 13.3346 5.30766 13.3159 5.33429C13.2972 5.36092 13.2733 5.38342 13.2455 5.40038C13.2178 5.41734 13.1869 5.42841 13.1546 5.43288H13.1521L13.0956 5.44063L13.0397 5.44806C12.8628 5.47109 12.6856 5.49261 12.5083 5.51263C12.1589 5.55245 11.809 5.58689 11.4586 5.61595C10.7623 5.67385 10.0645 5.71185 9.36541 5.72993C9.00917 5.7394 8.65304 5.74381 8.29702 5.74316C6.87993 5.74205 5.46407 5.65969 4.05641 5.49649C3.90401 5.47841 3.75162 5.45904 3.59922 5.43934C3.71739 5.45452 3.51334 5.42772 3.47201 5.42191C3.37515 5.40834 3.27828 5.39425 3.18142 5.37961C2.85629 5.33085 2.53309 5.2708 2.20861 5.21817C1.81631 5.1536 1.44114 5.18588 1.0863 5.37961C0.795031 5.539 0.55929 5.78341 0.410525 6.08024C0.257483 6.39666 0.211959 6.74117 0.143509 7.08115C0.0750604 7.42114 -0.0314881 7.78695 0.00887101 8.13598C0.0957239 8.88924 0.622331 9.50141 1.37979 9.6383C2.09237 9.76745 2.80883 9.87206 3.52722 9.96118C6.34923 10.3068 9.20021 10.3481 12.031 10.0845C12.2616 10.063 12.4918 10.0395 12.7217 10.0141C12.7935 10.0062 12.8661 10.0145 12.9343 10.0383C13.0025 10.0622 13.0645 10.1009 13.1158 10.1518C13.167 10.2027 13.2063 10.2644 13.2306 10.3325C13.2549 10.4005 13.2637 10.4731 13.2564 10.5449L13.1847 11.2417C13.0402 12.6496 12.8958 14.0575 12.7514 15.4652C12.6007 16.9435 12.4491 18.4217 12.2965 19.8999C12.2534 20.3161 12.2104 20.7323 12.1673 21.1484C12.126 21.5581 12.1202 21.9808 12.0423 22.3857C11.9197 23.0224 11.4886 23.4134 10.8597 23.5564C10.2834 23.6875 9.69481 23.7564 9.10388 23.7617C8.44877 23.7653 7.79399 23.7362 7.13888 23.7398C6.43953 23.7437 5.58295 23.6791 5.04311 23.1586C4.56881 22.7014 4.50326 21.9856 4.43869 21.3667C4.35259 20.5472 4.26724 19.7279 4.18265 18.9086L3.70803 14.3532L3.40097 11.4057C3.39581 11.357 3.39064 11.3089 3.3858 11.2598C3.34899 10.9082 3.10006 10.564 2.70777 10.5817C2.37198 10.5966 1.99034 10.882 2.02973 11.2598L2.25736 13.445L2.72811 17.9652C2.86221 19.2492 2.99599 20.5333 3.12944 21.8177C3.15527 22.0638 3.17948 22.3104 3.2066 22.5565C3.35416 23.9009 4.38089 24.6254 5.65237 24.8295C6.39498 24.9489 7.15567 24.9735 7.90925 24.9858C8.87529 25.0012 9.85101 25.0384 10.8012 24.8634C12.2093 24.6051 13.2657 23.6649 13.4165 22.2065C13.4595 21.7854 13.5026 21.3643 13.5456 20.9431C13.6888 19.55 13.8317 18.1568 13.9744 16.7635L14.4413 12.211L14.6554 10.1246C14.666 10.0211 14.7097 9.92382 14.78 9.84713C14.8502 9.77043 14.9433 9.71838 15.0454 9.69868C15.448 9.62022 15.8329 9.48623 16.1193 9.17982C16.5752 8.69196 16.6659 8.0559 16.5048 7.41468ZM1.35913 7.86476C1.36526 7.86186 1.35396 7.91448 1.34912 7.93902C1.34815 7.90189 1.35009 7.86896 1.35913 7.86476ZM1.39819 8.16697C1.40142 8.16471 1.41111 8.17763 1.42112 8.19312C1.40594 8.17892 1.39658 8.16826 1.39819 8.16697ZM1.43662 8.21766C1.45793 8.25608 1.4505 8.24123 1.43662 8.21766ZM1.51378 8.2803H1.51572C1.51572 8.28256 1.51927 8.28482 1.52056 8.28708C1.51842 8.2846 1.51636 8.28232 1.51378 8.2803ZM15.0267 8.18667C14.882 8.32421 14.6641 8.38814 14.4487 8.4201C12.0336 8.77849 9.58335 8.95995 7.14178 8.87988C5.39439 8.82014 3.66541 8.6261 1.93545 8.38168C1.76595 8.35779 1.58223 8.32679 1.46567 8.20184C1.24612 7.96615 1.35396 7.49152 1.41111 7.20675C1.46341 6.94587 1.56351 6.59813 1.87379 6.561C2.3581 6.50418 2.92054 6.70855 3.39968 6.7812C3.97655 6.86924 4.55557 6.93973 5.13674 6.99268C7.61705 7.21869 10.139 7.1835 12.6083 6.85288C13.0584 6.79239 13.5069 6.72212 13.9538 6.64204C14.3519 6.57069 14.7932 6.4367 15.0338 6.849C15.1988 7.1299 15.2207 7.50573 15.1952 7.82311C15.1873 7.9614 15.1273 8.09145 15.0267 8.18667Z" fill="#0D0C22"/>
<path d="M25.8911 5.1718C25.9641 4.88013 26.0943 4.68221 26.2818 4.57804C26.4797 4.46346 26.6776 4.41659 26.8755 4.43742C27.0838 4.45825 27.2661 4.52596 27.4224 4.64054C27.5786 4.75513 27.6568 4.89054 27.6568 5.0468C27.6568 5.1093 27.6516 5.1718 27.6411 5.2343C27.6307 5.28638 27.6255 5.33846 27.6255 5.39054C28.2609 5.16138 28.8807 5.01034 29.4849 4.93742C30.0995 4.85409 30.6568 4.88013 31.1568 5.01554C31.6672 5.15096 32.1099 5.39575 32.4849 5.74992C32.8703 6.10409 33.1516 6.59367 33.3286 7.21867C33.4016 7.46867 33.4172 7.77075 33.3755 8.12492C33.3338 8.46867 33.2557 8.81242 33.1411 9.15617C33.0266 9.49992 32.8859 9.81763 32.7193 10.1093C32.563 10.4009 32.4016 10.6145 32.2349 10.7499C32.6203 10.8749 32.9536 11.078 33.2349 11.3593C33.5161 11.6301 33.7401 11.9478 33.9068 12.3124C34.0734 12.677 34.1776 13.0728 34.2193 13.4999C34.2609 13.927 34.2349 14.3541 34.1411 14.7811C34.0474 15.1978 33.8547 15.5884 33.563 15.953C33.2713 16.3072 32.912 16.6249 32.4849 16.9061C32.0578 17.1874 31.5838 17.4218 31.063 17.6093C30.5422 17.7968 30.0109 17.927 29.4693 17.9999C28.938 18.0624 28.412 18.0624 27.8911 17.9999C27.3703 17.927 26.9016 17.7759 26.4849 17.5468C26.3495 17.7655 26.188 17.9166 26.0005 17.9999C25.8234 18.0937 25.6516 18.1249 25.4849 18.0937C25.3182 18.0624 25.1724 17.9687 25.0474 17.8124C24.9224 17.6561 24.8443 17.4374 24.813 17.1561C24.9068 16.2187 25.0005 15.2447 25.0943 14.2343C25.188 13.2134 25.2818 12.1874 25.3755 11.1561C25.4693 10.1249 25.5578 9.10409 25.6411 8.09367C25.7245 7.08325 25.8078 6.1093 25.8911 5.1718ZM26.6255 16.0155C26.9172 16.2239 27.2713 16.3645 27.688 16.4374C28.1047 16.4999 28.5318 16.5051 28.9693 16.453C29.4172 16.3905 29.8599 16.2759 30.2974 16.1093C30.7349 15.9426 31.1151 15.7291 31.438 15.4687C31.7713 15.1978 32.0318 14.8853 32.2193 14.5311C32.4068 14.1666 32.4745 13.7655 32.4224 13.328C32.4016 13.1718 32.3443 13.0207 32.2505 12.8749C32.1568 12.7291 32.0422 12.5937 31.9068 12.4687C31.6568 12.2499 31.313 12.1145 30.8755 12.0624C30.4484 11.9999 29.9901 11.9947 29.5005 12.0468C29.0213 12.0884 28.5526 12.1666 28.0943 12.2811C27.6359 12.3853 27.2557 12.4895 26.9536 12.5937L26.6255 16.0155ZM27.1411 10.5468C27.2141 10.5468 27.3651 10.5416 27.5943 10.5311C27.8338 10.5207 28.1099 10.4947 28.4224 10.453C28.7453 10.4114 29.0786 10.3489 29.4224 10.2655C29.7661 10.1718 30.0891 10.052 30.3911 9.90617C30.7036 9.74992 30.9641 9.56242 31.1724 9.34367C31.3911 9.1145 31.5213 8.83846 31.563 8.51554C31.6151 8.1093 31.5838 7.77596 31.4693 7.51554C31.3547 7.24471 31.1776 7.04159 30.938 6.90617C30.7088 6.76034 30.438 6.6718 30.1255 6.64054C29.8234 6.6093 29.5109 6.6145 29.188 6.65617C28.8651 6.69784 28.5474 6.77075 28.2349 6.87492C27.9328 6.97909 27.6724 7.09888 27.4536 7.2343L27.1411 10.5468ZM35.3911 9.37492C35.537 9.1145 35.7088 8.93742 35.9068 8.84367C36.1151 8.7395 36.313 8.71346 36.5005 8.76554C36.6984 8.80721 36.8651 8.9218 37.0005 9.1093C37.1359 9.28638 37.2036 9.52596 37.2036 9.82804C37.1724 9.95304 37.1151 10.203 37.0318 10.578C36.9484 10.953 36.8547 11.3853 36.7505 11.8749C36.6568 12.3645 36.563 12.8853 36.4693 13.4374C36.3755 13.9791 36.313 14.4791 36.2818 14.9374C36.2505 15.3957 36.2557 15.7811 36.2974 16.0937C36.3495 16.4061 36.4588 16.578 36.6255 16.6093C36.9276 16.6614 37.2088 16.5468 37.4693 16.2655C37.7297 15.9843 37.9693 15.6145 38.188 15.1561C38.4068 14.6874 38.6047 14.1666 38.7818 13.5937C38.9588 13.0207 39.1099 12.4739 39.2349 11.953C39.3703 11.4218 39.4797 10.953 39.563 10.5468C39.6463 10.1405 39.7088 9.86971 39.7505 9.7343C39.8234 9.47388 39.9172 9.26034 40.0318 9.09367C40.1568 8.927 40.3443 8.79159 40.5943 8.68742C40.9588 8.64575 41.2401 8.72388 41.438 8.9218C41.6463 9.1093 41.7557 9.38534 41.7661 9.74992C41.6828 10.1561 41.5891 10.5884 41.4849 11.0468C41.3807 11.5051 41.2818 11.9634 41.188 12.4218C41.0943 12.8697 41.0161 13.3072 40.9536 13.7343C40.8911 14.1509 40.8495 14.5259 40.8286 14.8593C40.8182 15.1926 40.8338 15.4739 40.8755 15.703C40.9276 15.9322 41.0266 16.078 41.1724 16.1405C41.5057 16.1926 41.8026 16.0207 42.063 15.6249C42.3338 15.2291 42.6203 14.5832 42.9224 13.6874C43.0161 13.4582 43.1568 13.3176 43.3443 13.2655C43.5318 13.2134 43.7036 13.2291 43.8599 13.3124C44.0266 13.3853 44.1516 13.5207 44.2349 13.7187C44.3286 13.9166 44.3286 14.1561 44.2349 14.4374C44.1724 14.6145 44.0943 14.8228 44.0005 15.0624C43.9068 15.2916 43.7922 15.5311 43.6568 15.7811C43.5318 16.0311 43.3911 16.2811 43.2349 16.5311C43.0786 16.7811 42.912 17.0051 42.7349 17.203C42.4745 17.5155 42.1828 17.7395 41.8599 17.8749C41.537 17.9999 41.2193 18.0416 40.9068 17.9999C40.5943 17.9582 40.2974 17.828 40.0161 17.6093C39.7349 17.3905 39.5057 17.0832 39.3286 16.6874C39.1411 16.9582 38.9484 17.2082 38.7505 17.4374C38.563 17.6666 38.3495 17.8645 38.1099 18.0311C37.8807 18.1978 37.6203 18.3176 37.3286 18.3905C37.0474 18.4739 36.7141 18.5051 36.3286 18.4843C35.9536 18.4634 35.6411 18.3593 35.3911 18.1718C35.1516 17.9843 34.9641 17.7447 34.8286 17.453C34.6932 17.1614 34.5995 16.8437 34.5474 16.4999C34.4953 16.1457 34.4693 15.7916 34.4693 15.4374C34.4693 15.0832 34.4797 14.7499 34.5005 14.4374C34.5318 14.1145 34.5578 13.8437 34.5786 13.6249C34.6099 13.3437 34.6568 13.0155 34.7193 12.6405C34.7922 12.2655 34.8651 11.8853 34.938 11.4999C35.0213 11.1041 35.1047 10.7239 35.188 10.3593C35.2713 9.9843 35.3391 9.65617 35.3911 9.37492ZM43.7036 9.37492C43.8078 9.12492 43.9797 8.96346 44.2193 8.89054C44.4588 8.81763 44.688 8.81763 44.9068 8.89054C45.1255 8.95304 45.2974 9.08846 45.4224 9.2968C45.5474 9.49471 45.5474 9.74471 45.4224 10.0468C45.3391 10.2968 45.2505 10.6041 45.1568 10.9687C45.063 11.3332 44.9745 11.7187 44.8911 12.1249C44.8182 12.5311 44.7557 12.9426 44.7036 13.3593C44.662 13.7655 44.6463 14.1405 44.6568 14.4843C44.6776 14.828 44.7297 15.1145 44.813 15.3437C44.8963 15.5728 45.0318 15.7134 45.2193 15.7655C45.6255 15.7864 46.0005 15.7082 46.3443 15.5311C46.6984 15.3437 47.0213 15.0884 47.313 14.7655C47.6151 14.4426 47.8911 14.0728 48.1411 13.6561C48.3911 13.2395 48.6151 12.8124 48.813 12.3749C49.0213 11.927 49.2036 11.4895 49.3599 11.0624C49.5266 10.6353 49.6724 10.2499 49.7974 9.90617C49.9432 9.64575 50.1151 9.46867 50.313 9.37492C50.5213 9.27075 50.7193 9.24471 50.9068 9.2968C51.1047 9.33846 51.2713 9.45304 51.4068 9.64054C51.5422 9.81763 51.6099 10.052 51.6099 10.3437C51.4224 10.8957 51.2766 11.4582 51.1724 12.0311C51.0786 12.6041 51.0161 13.1718 50.9849 13.7343C50.9641 14.1301 50.9536 14.5207 50.9536 14.9061C50.9641 15.2916 50.9901 15.6509 51.0318 15.9843C51.1463 15.9218 51.3026 15.8228 51.5005 15.6874C51.7088 15.552 51.9224 15.3905 52.1411 15.203C52.3703 15.0155 52.5891 14.8072 52.7974 14.578C53.0057 14.3489 53.1776 14.1093 53.313 13.8593C53.5213 13.6093 53.7245 13.4947 53.9224 13.5155C54.1307 13.5364 54.3026 13.6249 54.438 13.7811C54.5838 13.9374 54.6724 14.1249 54.7036 14.3437C54.7453 14.5624 54.7088 14.7499 54.5943 14.9061C54.2193 15.5416 53.7453 16.1457 53.1724 16.7187C52.5995 17.2916 51.8651 17.7655 50.9693 18.1405C51.0005 18.5884 51.0005 19.0989 50.9693 19.6718C50.938 20.2447 50.8599 20.828 50.7349 21.4218C50.6203 22.0155 50.4588 22.5832 50.2505 23.1249C50.0526 23.677 49.7922 24.1457 49.4693 24.5311C49.1568 24.9166 48.787 25.1926 48.3599 25.3593C47.9328 25.5259 47.438 25.5207 46.8755 25.3437C46.3338 25.177 45.9432 24.9009 45.7036 24.5155C45.4641 24.1301 45.3391 23.677 45.3286 23.1561C45.3286 22.6457 45.4276 22.0937 45.6255 21.4999C45.8234 20.9061 46.0943 20.3176 46.438 19.7343C46.7922 19.1614 47.1984 18.6197 47.6568 18.1093C48.1255 17.5989 48.6203 17.1614 49.1411 16.7968C49.1516 16.5468 49.1568 16.3176 49.1568 16.1093C49.1568 15.8905 49.162 15.6614 49.1724 15.4218C48.912 15.7551 48.6047 16.078 48.2505 16.3905C47.9068 16.6926 47.5318 16.953 47.1255 17.1718C46.7193 17.3905 46.2922 17.5416 45.8443 17.6249C45.3963 17.7082 44.938 17.6874 44.4693 17.5624C44.0318 17.4374 43.6828 17.2082 43.4224 16.8749C43.1724 16.5416 42.9901 16.1457 42.8755 15.6874C42.7609 15.2187 42.7088 14.7082 42.7193 14.1561C42.7297 13.5937 42.7766 13.0311 42.8599 12.4687C42.9536 11.8957 43.0734 11.3437 43.2193 10.8124C43.3651 10.2811 43.5266 9.802 43.7036 9.37492ZM49.1724 19.203C48.9328 19.4009 48.7036 19.6457 48.4849 19.9374C48.2661 20.2395 48.0682 20.552 47.8911 20.8749C47.7245 21.1978 47.5786 21.5207 47.4536 21.8437C47.3391 22.177 47.2609 22.4739 47.2193 22.7343C47.1776 22.9947 47.1776 23.2134 47.2193 23.3905C47.2609 23.5676 47.3599 23.6666 47.5161 23.6874C47.7141 23.7187 47.8963 23.6353 48.063 23.4374C48.2401 23.2499 48.3963 22.9999 48.5318 22.6874C48.6776 22.3749 48.8026 22.0259 48.9068 21.6405C49.0109 21.2655 49.0891 20.9061 49.1411 20.5624C49.2036 20.2187 49.2349 19.9218 49.2349 19.6718C49.2453 19.4218 49.2245 19.2655 49.1724 19.203ZM57.5318 17.5937C57.6776 16.6457 57.7818 15.8124 57.8443 15.0937C57.9172 14.3749 57.9588 13.7499 57.9693 13.2187C57.9797 12.677 57.9693 12.2239 57.938 11.8593C57.9172 11.4843 57.8859 11.1666 57.8443 10.9061C57.8026 10.6457 57.7557 10.4374 57.7036 10.2811C57.662 10.1145 57.6359 9.97388 57.6255 9.8593C57.6047 9.70304 57.6151 9.56763 57.6568 9.45304C57.7088 9.32804 57.7766 9.22388 57.8599 9.14054C57.9536 9.05721 58.0578 8.99471 58.1724 8.95304C58.287 8.90096 58.4016 8.87492 58.5161 8.87492C58.7453 8.87492 58.9224 8.91138 59.0474 8.9843C59.1724 9.05721 59.2661 9.16659 59.3286 9.31242C59.4016 9.44784 59.4484 9.61971 59.4693 9.82804C59.5005 10.0259 59.5266 10.2603 59.5474 10.5311C59.6828 10.302 59.8391 10.0728 60.0161 9.84367C60.1932 9.60409 60.3911 9.39054 60.6099 9.20304C60.8286 9.01554 61.0682 8.8645 61.3286 8.74992C61.5995 8.62492 61.8911 8.56242 62.2036 8.56242C62.5266 8.56242 62.8338 8.62492 63.1255 8.74992C63.4172 8.8645 63.6776 9.03117 63.9068 9.24992C64.1463 9.45825 64.3443 9.70825 64.5005 9.99992C64.6672 10.2811 64.7922 10.5884 64.8755 10.9218C65.1047 10.4843 65.3547 10.0676 65.6255 9.6718C65.9068 9.27596 66.2818 8.96867 66.7505 8.74992C67.2193 8.53117 67.6568 8.46867 68.063 8.56242C68.4693 8.65617 68.8234 8.84888 69.1255 9.14054C69.438 9.4218 69.6828 9.78117 69.8599 10.2187C70.037 10.6457 70.1255 11.0937 70.1255 11.5624C70.1255 12.1041 70.0891 12.6718 70.0161 13.2655C69.9536 13.8593 69.8963 14.4114 69.8443 14.9218C69.7922 15.4322 69.7713 15.8593 69.7818 16.203C69.8026 16.5468 69.8963 16.7395 70.063 16.7811C70.3443 16.8541 70.6151 16.7707 70.8755 16.5311C71.1359 16.2916 71.3703 15.9947 71.5786 15.6405C71.7974 15.2864 71.9849 14.927 72.1411 14.5624C72.3078 14.1874 72.438 13.8957 72.5318 13.6874C72.6047 13.5103 72.7193 13.4009 72.8755 13.3593C73.0422 13.3176 73.1984 13.328 73.3443 13.3905C73.5005 13.453 73.6255 13.5676 73.7193 13.7343C73.8234 13.8905 73.8599 14.0832 73.8286 14.3124C73.7036 14.8228 73.5318 15.3332 73.313 15.8437C73.0943 16.3541 72.8182 16.8176 72.4849 17.2343C72.162 17.6405 71.7713 17.9687 71.313 18.2187C70.8547 18.4791 70.3286 18.6093 69.7349 18.6093C69.3391 18.6093 69.0109 18.4999 68.7505 18.2811C68.5005 18.0728 68.3026 17.8176 68.1568 17.5155C68.0109 17.203 67.912 16.8749 67.8599 16.5311C67.8078 16.1874 67.7818 15.8853 67.7818 15.6249C67.7818 15.2499 67.8026 14.8905 67.8443 14.5468C67.8963 14.203 67.9536 13.8697 68.0161 13.5468C68.0786 13.2134 68.1307 12.8957 68.1724 12.5937C68.2245 12.2811 68.2505 11.9791 68.2505 11.6874C68.2505 11.2916 68.2036 10.9791 68.1099 10.7499C68.0266 10.5207 67.9016 10.4061 67.7349 10.4061C67.412 10.4061 67.1047 10.5989 66.813 10.9843C66.5318 11.3593 66.2713 11.8489 66.0318 12.453C65.8026 13.0468 65.5943 13.7239 65.4068 14.4843C65.2297 15.2343 65.0891 15.9843 64.9849 16.7343C64.9536 16.9947 64.8391 17.1822 64.6411 17.2968C64.4432 17.4009 64.2297 17.4426 64.0005 17.4218C63.7818 17.3905 63.5786 17.3072 63.3911 17.1718C63.2141 17.0259 63.1255 16.8332 63.1255 16.5937C63.1463 16.4582 63.1776 16.2134 63.2193 15.8593C63.2713 15.4947 63.313 15.0832 63.3443 14.6249C63.3859 14.1666 63.4068 13.6926 63.4068 13.203C63.4172 12.703 63.3859 12.2447 63.313 11.828C63.2505 11.4114 63.1359 11.0728 62.9693 10.8124C62.813 10.5416 62.5891 10.4061 62.2974 10.4061C62.0578 10.4061 61.8286 10.5207 61.6099 10.7499C61.3911 10.9687 61.1776 11.2655 60.9693 11.6405C60.7713 12.0155 60.5891 12.4478 60.4224 12.9374C60.2557 13.427 60.1047 13.9426 59.9693 14.4843C59.8443 15.0259 59.7349 15.5728 59.6411 16.1249C59.5578 16.677 59.5005 17.1978 59.4693 17.6874C59.438 17.9478 59.313 18.1301 59.0943 18.2343C58.8859 18.3384 58.662 18.3801 58.4224 18.3593C58.1828 18.3384 57.9693 18.2603 57.7818 18.1249C57.5943 17.9895 57.5109 17.8124 57.5318 17.5937ZM77.6568 10.6405C77.6359 11.1614 77.5422 11.6874 77.3755 12.2187C77.2088 12.7395 76.9641 13.2134 76.6411 13.6405C76.3182 14.0572 75.9224 14.3957 75.4536 14.6561C74.9953 14.9061 74.4693 15.0103 73.8755 14.9687C73.8859 15.2916 73.9224 15.6041 73.9849 15.9061C74.0474 16.2082 74.1463 16.4687 74.2818 16.6874C74.4276 16.8957 74.6203 17.0468 74.8599 17.1405C75.0995 17.2239 75.4016 17.2082 75.7661 17.0937C76.1307 16.9895 76.4797 16.8176 76.813 16.578C77.1463 16.3384 77.4432 16.0624 77.7036 15.7499C77.9745 15.4374 78.1984 15.1093 78.3755 14.7655C78.563 14.4114 78.6984 14.0676 78.7818 13.7343C78.8234 13.5572 78.9224 13.4478 79.0786 13.4061C79.2349 13.3645 79.3963 13.3697 79.563 13.4218C79.7401 13.4739 79.8859 13.5676 80.0005 13.703C80.1255 13.828 80.1672 13.9739 80.1255 14.1405C79.8963 14.7447 79.6672 15.2811 79.438 15.7499C79.2193 16.2187 78.9745 16.6353 78.7036 16.9999C78.4328 17.3541 78.1255 17.6561 77.7818 17.9061C77.4484 18.1561 77.0526 18.3645 76.5943 18.5311C75.9797 18.7499 75.412 18.8437 74.8911 18.8124C74.3703 18.7916 73.9172 18.6561 73.5318 18.4061C73.1463 18.1561 72.8391 17.802 72.6099 17.3437C72.3911 16.8853 72.2661 16.328 72.2349 15.6718C72.2141 15.3593 72.2036 14.9843 72.2036 14.5468C72.2141 14.0989 72.2453 13.6353 72.2974 13.1561C72.3495 12.6666 72.4328 12.1718 72.5474 11.6718C72.662 11.1718 72.8182 10.7082 73.0161 10.2811C73.2141 9.84367 73.4588 9.46346 73.7505 9.14054C74.0526 8.80721 74.4172 8.56763 74.8443 8.4218C75.1984 8.2968 75.5474 8.24992 75.8911 8.28117C76.2349 8.31242 76.537 8.4218 76.7974 8.6093C77.0682 8.7968 77.2818 9.06242 77.438 9.40617C77.5943 9.7395 77.6672 10.1509 77.6568 10.6405ZM75.688 10.2343C75.5422 10.1405 75.3963 10.1353 75.2505 10.2187C75.1151 10.2916 74.9849 10.4218 74.8599 10.6093C74.7349 10.7864 74.6255 10.9999 74.5318 11.2499C74.438 11.4999 74.3599 11.7603 74.2974 12.0311C74.2349 12.2916 74.188 12.5416 74.1568 12.7811C74.1255 13.0207 74.1203 13.2134 74.1411 13.3593C74.6203 13.2655 75.0005 13.0676 75.2818 12.7655C75.563 12.4634 75.7557 12.1405 75.8599 11.7968C75.9745 11.453 76.0109 11.1301 75.9693 10.828C75.938 10.5259 75.8443 10.328 75.688 10.2343ZM85.4693 17.8593C84.8338 17.8593 84.3286 17.6822 83.9536 17.328C83.5891 16.9739 83.3338 16.5207 83.188 15.9687C83.0422 15.4061 82.9953 14.7864 83.0474 14.1093C83.1099 13.4322 83.2557 12.7707 83.4849 12.1249C83.7141 11.4687 84.0109 10.8645 84.3755 10.3124C84.7505 9.76034 85.1776 9.33846 85.6568 9.0468C86.1359 8.75513 86.6568 8.63013 87.2193 8.6718C87.7922 8.71346 88.3859 8.99992 89.0005 9.53117C89.063 9.34367 89.1984 9.2343 89.4068 9.20304C89.6151 9.16138 89.8182 9.18221 90.0161 9.26554C90.2245 9.33846 90.3963 9.46867 90.5318 9.65617C90.6672 9.83325 90.6932 10.052 90.6099 10.3124C90.537 10.6041 90.4432 10.9634 90.3286 11.3905C90.2141 11.8072 90.0995 12.2447 89.9849 12.703C89.8807 13.1614 89.787 13.6249 89.7036 14.0937C89.6307 14.552 89.5943 14.9687 89.5943 15.3437C89.6047 15.7082 89.662 16.0155 89.7661 16.2655C89.8703 16.5051 90.0526 16.6353 90.313 16.6561C90.6255 16.677 90.9172 16.5728 91.188 16.3437C91.4693 16.1041 91.7141 15.8072 91.9224 15.453C92.1411 15.0989 92.3234 14.7239 92.4693 14.328C92.6151 13.9322 92.7088 13.5884 92.7505 13.2968C92.8234 13.0259 92.9432 12.8697 93.1099 12.828C93.287 12.7759 93.4536 12.7916 93.6099 12.8749C93.7766 12.9582 93.9068 13.0884 94.0005 13.2655C94.1047 13.4322 94.1203 13.5937 94.0474 13.7499C93.9745 14.1666 93.8286 14.6457 93.6099 15.1874C93.3911 15.7187 93.1099 16.2291 92.7661 16.7187C92.4328 17.1978 92.0526 17.6041 91.6255 17.9374C91.1984 18.2707 90.7401 18.4374 90.2505 18.4374C90.0318 18.4374 89.8026 18.3957 89.563 18.3124C89.3338 18.2395 89.1099 18.1197 88.8911 17.953C88.6828 17.7864 88.4953 17.5728 88.3286 17.3124C88.162 17.052 88.0422 16.7343 87.9693 16.3593C87.8755 16.4739 87.7453 16.6197 87.5786 16.7968C87.412 16.9634 87.2193 17.1249 87.0005 17.2811C86.7818 17.4374 86.5422 17.5728 86.2818 17.6874C86.0213 17.802 85.7505 17.8593 85.4693 17.8593ZM85.4536 15.9061C85.787 15.9374 86.0786 15.8593 86.3286 15.6718C86.5891 15.4843 86.8182 15.2343 87.0161 14.9218C87.2141 14.5989 87.3807 14.2395 87.5161 13.8437C87.6516 13.4478 87.7609 13.0676 87.8443 12.703C87.938 12.328 88.0109 11.9895 88.063 11.6874C88.1151 11.3749 88.1516 11.1509 88.1724 11.0155C87.8391 10.7343 87.5266 10.5884 87.2349 10.578C86.9432 10.5676 86.6724 10.6509 86.4224 10.828C86.1828 10.9947 85.9693 11.2343 85.7818 11.5468C85.5943 11.8593 85.4328 12.203 85.2974 12.578C85.1724 12.9426 85.0786 13.3176 85.0161 13.703C84.9536 14.0884 84.9224 14.4426 84.9224 14.7655C84.9328 15.0884 84.9797 15.3541 85.063 15.5624C85.1568 15.7707 85.287 15.8853 85.4536 15.9061ZM102.141 12.0155C102.12 12.0155 102.105 12.0103 102.094 11.9999C101.98 12.2499 101.829 12.4322 101.641 12.5468C101.464 12.6614 101.282 12.7082 101.094 12.6874C100.907 12.6561 100.735 12.5624 100.579 12.4061C100.433 12.2499 100.334 12.0311 100.282 11.7499C100.282 11.6145 100.297 11.4478 100.329 11.2499C100.36 11.0416 100.381 10.8437 100.391 10.6561C100.412 10.4582 100.407 10.2916 100.376 10.1561C100.344 10.0103 100.261 9.927 100.126 9.90617C99.8859 10.0416 99.6776 10.2707 99.5005 10.5937C99.3234 10.9061 99.1776 11.2655 99.063 11.6718C98.9484 12.0676 98.8651 12.4895 98.813 12.9374C98.7713 13.3853 98.7557 13.8176 98.7661 14.2343C98.787 14.6405 98.8391 15.0051 98.9224 15.328C99.0161 15.6509 99.1463 15.8853 99.313 16.0311C99.5213 16.2291 99.7505 16.3489 100.001 16.3905C100.251 16.4322 100.511 16.427 100.782 16.3749C101.011 16.3332 101.271 16.2551 101.563 16.1405C101.855 16.0259 102.146 15.8593 102.438 15.6405C102.74 15.4218 103.027 15.1405 103.297 14.7968C103.579 14.453 103.824 14.0207 104.032 13.4999C104.105 13.3437 104.23 13.2499 104.407 13.2187C104.594 13.1874 104.777 13.2082 104.954 13.2811C105.131 13.3437 105.271 13.453 105.376 13.6093C105.48 13.7655 105.49 13.9582 105.407 14.1874C105.199 14.677 104.938 15.1145 104.626 15.4999C104.324 15.8853 103.995 16.2239 103.641 16.5155C103.287 16.8072 102.917 17.0572 102.532 17.2655C102.146 17.4739 101.771 17.6457 101.407 17.7811C101.126 17.8853 100.829 17.9634 100.516 18.0155C100.204 18.078 99.8859 18.0937 99.563 18.0624C99.2505 18.0311 98.9484 17.953 98.6568 17.828C98.3651 17.6926 98.1047 17.4843 97.8755 17.203C97.6047 16.8801 97.3911 16.4791 97.2349 15.9999C97.0891 15.5207 96.9953 15.0103 96.9536 14.4687C96.912 13.927 96.9224 13.3697 96.9849 12.7968C97.0578 12.2239 97.1724 11.6822 97.3286 11.1718C97.4953 10.6509 97.7036 10.1822 97.9536 9.76554C98.2141 9.33846 98.5109 9.00513 98.8443 8.76554C99.3859 8.40096 99.912 8.2343 100.422 8.26554C100.943 8.28638 101.355 8.51554 101.657 8.95304C101.896 8.9843 102.089 9.10409 102.235 9.31242C102.381 9.52075 102.422 9.76034 102.36 10.0311L102.141 12.0155ZM108.844 8.70304C109.324 8.5468 109.74 8.51554 110.094 8.6093C110.459 8.70304 110.761 8.88534 111.001 9.15617C111.24 9.427 111.428 9.76554 111.563 10.1718C111.709 10.5676 111.808 10.9895 111.86 11.4374C111.881 11.6457 111.891 11.8749 111.891 12.1249C111.902 12.3749 111.896 12.6249 111.876 12.8749C111.865 13.1249 111.844 13.3645 111.813 13.5937C111.792 13.8228 111.761 14.0311 111.719 14.2187C111.969 14.2082 112.193 14.177 112.391 14.1249C112.589 14.0624 112.771 13.9947 112.938 13.9218C113.105 13.8384 113.261 13.7499 113.407 13.6561C113.563 13.5624 113.719 13.4739 113.876 13.3905C114.074 13.2864 114.235 13.2759 114.36 13.3593C114.495 13.4322 114.584 13.5468 114.626 13.703C114.678 13.8593 114.688 14.0311 114.657 14.2187C114.636 14.3957 114.568 14.5364 114.454 14.6405C113.954 15.0989 113.407 15.4322 112.813 15.6405C112.219 15.8384 111.615 15.9374 111.001 15.9374C110.594 16.6561 110.074 17.203 109.438 17.578C108.803 17.9426 108.11 18.1301 107.36 18.1405C106.662 18.1509 106.074 18.0103 105.594 17.7187C105.115 17.427 104.735 17.0468 104.454 16.578C104.172 16.1093 103.985 15.578 103.891 14.9843C103.808 14.3801 103.808 13.7759 103.891 13.1718C103.985 12.5572 104.162 11.9634 104.422 11.3905C104.693 10.8072 105.037 10.302 105.454 9.87492C105.87 9.44784 106.36 9.12492 106.922 8.90617C107.495 8.677 108.136 8.6093 108.844 8.70304ZM107.719 10.4999C107.386 10.5728 107.079 10.7603 106.797 11.0624C106.516 11.3541 106.277 11.7082 106.079 12.1249C105.881 12.5311 105.74 12.9739 105.657 13.453C105.574 13.9322 105.563 14.3853 105.626 14.8124C105.699 15.2291 105.86 15.5937 106.11 15.9061C106.36 16.2187 106.719 16.4218 107.188 16.5155C107.355 16.5468 107.542 16.5311 107.751 16.4687C107.959 16.4061 108.162 16.3124 108.36 16.1874C108.558 16.0624 108.735 15.9166 108.891 15.7499C109.058 15.5728 109.183 15.3957 109.266 15.2187C108.975 15.0416 108.725 14.828 108.516 14.578C108.318 14.328 108.146 14.052 108.001 13.7499C107.771 13.2499 107.636 12.7187 107.594 12.1561C107.553 11.5832 107.594 11.0311 107.719 10.4999ZM109.657 10.578C109.365 10.7551 109.199 11.0051 109.157 11.328C109.126 11.6405 109.157 11.9634 109.251 12.2968C109.344 12.6197 109.475 12.9114 109.641 13.1718C109.808 13.4322 109.949 13.5937 110.063 13.6561C110.126 13.6041 110.172 13.4843 110.204 13.2968C110.245 13.0989 110.271 12.8749 110.282 12.6249C110.292 12.3749 110.287 12.1145 110.266 11.8437C110.245 11.5728 110.209 11.3332 110.157 11.1249C110.105 10.9166 110.037 10.7603 109.954 10.6561C109.87 10.5416 109.771 10.5155 109.657 10.578ZM113.829 5.06242C113.975 4.802 114.157 4.63534 114.376 4.56242C114.605 4.4895 114.818 4.4843 115.016 4.5468C115.214 4.6093 115.376 4.72388 115.501 4.89054C115.626 5.05721 115.657 5.24992 115.594 5.46867L114.626 15.8437C115.074 15.8124 115.511 15.7239 115.938 15.578C116.365 15.4218 116.777 15.2291 117.172 14.9999C117.568 14.7603 117.943 14.4947 118.297 14.203C118.662 13.9114 119.001 13.6145 119.313 13.3124C119.48 13.2291 119.626 13.2603 119.751 13.4061C119.886 13.552 119.98 13.7395 120.032 13.9687C120.094 14.1874 120.105 14.4166 120.063 14.6561C120.032 14.8957 119.933 15.0676 119.766 15.1718C119.547 15.3384 119.303 15.5259 119.032 15.7343C118.761 15.9322 118.485 16.1249 118.204 16.3124C117.933 16.4895 117.667 16.6509 117.407 16.7968C117.146 16.9426 116.922 17.0416 116.735 17.0937C117.047 17.4374 117.292 17.8749 117.469 18.4061C117.646 18.9374 117.756 19.4999 117.797 20.0937C117.839 20.6978 117.808 21.2968 117.704 21.8905C117.61 22.4843 117.443 23.0051 117.204 23.453C116.964 23.9114 116.652 24.2707 116.266 24.5311C115.881 24.7916 115.422 24.8853 114.891 24.8124C114.391 24.7499 113.985 24.5572 113.672 24.2343C113.37 23.9114 113.136 23.5155 112.969 23.0468C112.803 22.5884 112.693 22.0728 112.641 21.4999C112.589 20.9374 112.568 20.3749 112.579 19.8124C112.589 19.2603 112.615 18.7291 112.657 18.2187C112.688 17.7187 112.709 17.2968 112.719 16.953C112.719 16.7551 112.74 16.3801 112.782 15.828C112.824 15.2759 112.87 14.6249 112.922 13.8749C112.985 13.1249 113.053 12.3176 113.126 11.453C113.209 10.5884 113.287 9.74992 113.36 8.93742C113.443 8.12492 113.521 7.37492 113.594 6.68742C113.678 5.99992 113.756 5.45825 113.829 5.06242ZM114.969 22.7811C115.251 22.7707 115.485 22.6405 115.672 22.3905C115.86 22.1509 115.995 21.8541 116.079 21.4999C116.172 21.1457 116.209 20.7551 116.188 20.328C116.167 19.9114 116.094 19.5207 115.969 19.1561C115.844 18.7916 115.662 18.4739 115.422 18.203C115.193 17.9426 114.902 17.7916 114.547 17.7499C114.527 17.927 114.495 18.177 114.454 18.4999C114.422 18.8228 114.391 19.1718 114.36 19.5468C114.339 19.9218 114.324 20.302 114.313 20.6874C114.313 21.0728 114.329 21.4218 114.36 21.7343C114.402 22.0468 114.469 22.302 114.563 22.4999C114.657 22.6978 114.792 22.7916 114.969 22.7811ZM119.485 5.06242C119.631 4.802 119.813 4.63534 120.032 4.56242C120.261 4.4895 120.475 4.4843 120.672 4.5468C120.87 4.6093 121.032 4.72388 121.157 4.89054C121.282 5.05721 121.313 5.24992 121.251 5.46867L120.282 15.8437C120.73 15.8124 121.167 15.7239 121.594 15.578C122.021 15.4218 122.433 15.2291 122.829 14.9999C123.225 14.7603 123.6 14.4947 123.954 14.203C124.318 13.9114 124.657 13.6145 124.969 13.3124C125.136 13.2291 125.282 13.2603 125.407 13.4061C125.542 13.552 125.636 13.7395 125.688 13.9687C125.751 14.1874 125.761 14.4166 125.719 14.6561C125.688 14.8957 125.589 15.0676 125.422 15.1718C125.204 15.3384 124.959 15.5259 124.688 15.7343C124.417 15.9322 124.141 16.1249 123.86 16.3124C123.589 16.4895 123.324 16.6509 123.063 16.7968C122.803 16.9426 122.579 17.0416 122.391 17.0937C122.704 17.4374 122.949 17.8749 123.126 18.4061C123.303 18.9374 123.412 19.4999 123.454 20.0937C123.495 20.6978 123.464 21.2968 123.36 21.8905C123.266 22.4843 123.1 23.0051 122.86 23.453C122.62 23.9114 122.308 24.2707 121.922 24.5311C121.537 24.7916 121.079 24.8853 120.547 24.8124C120.047 24.7499 119.641 24.5572 119.329 24.2343C119.027 23.9114 118.792 23.5155 118.626 23.0468C118.459 22.5884 118.35 22.0728 118.297 21.4999C118.245 20.9374 118.225 20.3749 118.235 19.8124C118.245 19.2603 118.271 18.7291 118.313 18.2187C118.344 17.7187 118.365 17.2968 118.376 16.953C118.376 16.7551 118.396 16.3801 118.438 15.828C118.48 15.2759 118.527 14.6249 118.579 13.8749C118.641 13.1249 118.709 12.3176 118.782 11.453C118.865 10.5884 118.943 9.74992 119.016 8.93742C119.1 8.12492 119.178 7.37492 119.251 6.68742C119.334 5.99992 119.412 5.45825 119.485 5.06242ZM120.626 22.7811C120.907 22.7707 121.141 22.6405 121.329 22.3905C121.516 22.1509 121.652 21.8541 121.735 21.4999C121.829 21.1457 121.865 20.7551 121.844 20.328C121.824 19.9114 121.751 19.5207 121.626 19.1561C121.501 18.7916 121.318 18.4739 121.079 18.203C120.85 17.9426 120.558 17.7916 120.204 17.7499C120.183 17.927 120.152 18.177 120.11 18.4999C120.079 18.8228 120.047 19.1718 120.016 19.5468C119.995 19.9218 119.98 20.302 119.969 20.6874C119.969 21.0728 119.985 21.4218 120.016 21.7343C120.058 22.0468 120.126 22.302 120.219 22.4999C120.313 22.6978 120.449 22.7916 120.626 22.7811ZM129.688 10.6405C129.667 11.1614 129.574 11.6874 129.407 12.2187C129.24 12.7395 128.995 13.2134 128.672 13.6405C128.35 14.0572 127.954 14.3957 127.485 14.6561C127.027 14.9061 126.501 15.0103 125.907 14.9687C125.917 15.2916 125.954 15.6041 126.016 15.9061C126.079 16.2082 126.178 16.4687 126.313 16.6874C126.459 16.8957 126.652 17.0468 126.891 17.1405C127.131 17.2239 127.433 17.2082 127.797 17.0937C128.162 16.9895 128.511 16.8176 128.844 16.578C129.178 16.3384 129.475 16.0624 129.735 15.7499C130.006 15.4374 130.23 15.1093 130.407 14.7655C130.594 14.4114 130.73 14.0676 130.813 13.7343C130.855 13.5572 130.954 13.4478 131.11 13.4061C131.266 13.3645 131.428 13.3697 131.594 13.4218C131.771 13.4739 131.917 13.5676 132.032 13.703C132.157 13.828 132.199 13.9739 132.157 14.1405C131.928 14.7447 131.699 15.2811 131.469 15.7499C131.251 16.2187 131.006 16.6353 130.735 16.9999C130.464 17.3541 130.157 17.6561 129.813 17.9061C129.48 18.1561 129.084 18.3645 128.626 18.5311C128.011 18.7499 127.443 18.8437 126.922 18.8124C126.402 18.7916 125.949 18.6561 125.563 18.4061C125.178 18.1561 124.87 17.802 124.641 17.3437C124.422 16.8853 124.297 16.328 124.266 15.6718C124.245 15.3593 124.235 14.9843 124.235 14.5468C124.245 14.0989 124.277 13.6353 124.329 13.1561C124.381 12.6666 124.464 12.1718 124.579 11.6718C124.693 11.1718 124.85 10.7082 125.047 10.2811C125.245 9.84367 125.49 9.46346 125.782 9.14054C126.084 8.80721 126.449 8.56763 126.876 8.4218C127.23 8.2968 127.579 8.24992 127.922 8.28117C128.266 8.31242 128.568 8.4218 128.829 8.6093C129.1 8.7968 129.313 9.06242 129.469 9.40617C129.626 9.7395 129.699 10.1509 129.688 10.6405ZM127.719 10.2343C127.574 10.1405 127.428 10.1353 127.282 10.2187C127.146 10.2916 127.016 10.4218 126.891 10.6093C126.766 10.7864 126.657 10.9999 126.563 11.2499C126.469 11.4999 126.391 11.7603 126.329 12.0311C126.266 12.2916 126.219 12.5416 126.188 12.7811C126.157 13.0207 126.152 13.2134 126.172 13.3593C126.652 13.2655 127.032 13.0676 127.313 12.7655C127.594 12.4634 127.787 12.1405 127.891 11.7968C128.006 11.453 128.042 11.1301 128.001 10.828C127.969 10.5259 127.876 10.328 127.719 10.2343ZM135.985 10.6405C135.964 11.1614 135.87 11.6874 135.704 12.2187C135.537 12.7395 135.292 13.2134 134.969 13.6405C134.646 14.0572 134.251 14.3957 133.782 14.6561C133.324 14.9061 132.797 15.0103 132.204 14.9687C132.214 15.2916 132.251 15.6041 132.313 15.9061C132.376 16.2082 132.475 16.4687 132.61 16.6874C132.756 16.8957 132.949 17.0468 133.188 17.1405C133.428 17.2239 133.73 17.2082 134.094 17.0937C134.459 16.9895 134.808 16.8176 135.141 16.578C135.475 16.3384 135.771 16.0624 136.032 15.7499C136.303 15.4374 136.527 15.1093 136.704 14.7655C136.891 14.4114 137.027 14.0676 137.11 13.7343C137.152 13.5572 137.251 13.4478 137.407 13.4061C137.563 13.3645 137.725 13.3697 137.891 13.4218C138.068 13.4739 138.214 13.5676 138.329 13.703C138.454 13.828 138.495 13.9739 138.454 14.1405C138.225 14.7447 137.995 15.2811 137.766 15.7499C137.547 16.2187 137.303 16.6353 137.032 16.9999C136.761 17.3541 136.454 17.6561 136.11 17.9061C135.777 18.1561 135.381 18.3645 134.922 18.5311C134.308 18.7499 133.74 18.8437 133.219 18.8124C132.699 18.7916 132.245 18.6561 131.86 18.4061C131.475 18.1561 131.167 17.802 130.938 17.3437C130.719 16.8853 130.594 16.328 130.563 15.6718C130.542 15.3593 130.532 14.9843 130.532 14.5468C130.542 14.0989 130.574 13.6353 130.626 13.1561C130.678 12.6666 130.761 12.1718 130.876 11.6718C130.99 11.1718 131.146 10.7082 131.344 10.2811C131.542 9.84367 131.787 9.46346 132.079 9.14054C132.381 8.80721 132.745 8.56763 133.172 8.4218C133.527 8.2968 133.876 8.24992 134.219 8.28117C134.563 8.31242 134.865 8.4218 135.126 8.6093C135.396 8.7968 135.61 9.06242 135.766 9.40617C135.922 9.7395 135.995 10.1509 135.985 10.6405ZM134.016 10.2343C133.87 10.1405 133.725 10.1353 133.579 10.2187C133.443 10.2916 133.313 10.4218 133.188 10.6093C133.063 10.7864 132.954 10.9999 132.86 11.2499C132.766 11.4999 132.688 11.7603 132.626 12.0311C132.563 12.2916 132.516 12.5416 132.485 12.7811C132.454 13.0207 132.449 13.2134 132.469 13.3593C132.949 13.2655 133.329 13.0676 133.61 12.7655C133.891 12.4634 134.084 12.1405 134.188 11.7968C134.303 11.453 134.339 11.1301 134.297 10.828C134.266 10.5259 134.172 10.328 134.016 10.2343Z" fill="#222222"/>
</svg>
